<svg width="43" height="43" viewBox="0 0 43 43" fill="none" xmlns="http://www.w3.org/2000/svg">
<g clip-path="url(#clip0_34_367)">
<path d="M23.4316 0.184738C23.1797 0.361103 18.2498 7.8945 9.19629 21.9535C8.0793 23.6752 8.0625 23.7172 8.0625 24.1791C8.0625 24.5486 8.11289 24.725 8.27246 24.9685C8.67559 25.5564 8.44043 25.5312 13.8154 25.5312C17.8299 25.5312 18.6445 25.548 18.6445 25.6488C18.6445 25.7076 18.3842 29.1929 18.0566 33.3838C17.7375 37.5746 17.4688 41.2615 17.4688 41.5638C17.4688 42.2021 17.6451 42.5717 18.0734 42.832C18.4682 43.0756 19.1988 43.0588 19.5768 42.8068C19.8035 42.6556 21.4916 39.9513 27.4041 30.2847L34.9375 17.9474V17.4771C34.9375 17.1076 34.8871 16.9312 34.7275 16.6877C34.3244 16.0998 34.5596 16.125 29.1846 16.125C26.5307 16.125 24.3555 16.0998 24.3555 16.0746C24.3555 16.0494 24.6242 12.858 24.9434 8.9863C25.2709 5.11462 25.5312 1.73845 25.5312 1.4781C25.5312 0.856613 25.3633 0.48708 24.977 0.21833C24.5402 -0.0756149 23.8432 -0.092411 23.4316 0.184738ZM21.9199 11.8502C21.6932 14.5965 21.5 17.0824 21.5 17.3847C21.5 18.0146 21.6764 18.3841 22.1047 18.6445C22.3734 18.8041 22.5414 18.8125 26.7322 18.8125C29.1174 18.8125 31.0742 18.8377 31.0742 18.8629C31.0742 18.9468 20.7189 35.8613 20.6854 35.8277C20.6686 35.8109 20.8449 33.3334 21.0801 30.3183C21.3068 27.3033 21.5 24.5906 21.5 24.2799C21.5 23.6416 21.3236 23.2804 20.8953 23.0117C20.6266 22.8521 20.4586 22.8437 16.2762 22.8437H11.9342L17.116 14.8316C19.9631 10.4308 22.3063 6.8279 22.3146 6.8363C22.3314 6.8447 22.1467 9.10387 21.9199 11.8502Z" fill="white"/>
</g>
<defs>
<clipPath id="clip0_34_367">
<rect width="43" height="43" fill="white"/>
</clipPath>
</defs>
</svg>
