<svg width="41" height="35" viewBox="0 0 41 35" fill="none" xmlns="http://www.w3.org/2000/svg">
<g clip-path="url(#clip0_34_370)">
<path d="M33.5127 0.847674C33.2724 1.05275 33.1924 1.31252 33.2804 1.58596C33.4006 1.93459 33.6808 2.05764 34.5217 2.13283C34.9381 2.16701 35.3224 2.20803 35.3785 2.22853C35.4345 2.24221 33.9931 3.2881 32.1754 4.55959C30.3576 5.82424 28.4117 7.17775 27.8511 7.5674L26.8342 8.2715L25.4568 6.82228C24.6961 6.02248 23.9994 5.31154 23.9113 5.25002C23.8152 5.18166 23.607 5.12697 23.4068 5.12697C23.0064 5.12697 23.3427 4.90822 18.8744 8.01857C16.9445 9.36525 15.3349 10.4453 15.2949 10.4248C15.2549 10.4043 14.6062 9.74123 13.8535 8.9551C13.1088 8.16896 12.4121 7.47853 12.316 7.42385C12.1078 7.29396 11.7474 7.28029 11.5152 7.38967C11.1709 7.54689 3.47536 12.9336 3.34724 13.1113C2.93884 13.6377 3.45935 14.3076 4.18005 14.1914C4.37224 14.1641 5.48532 13.4258 8.07986 11.6211C10.0738 10.2266 11.7314 9.09182 11.7634 9.09865C11.7875 9.09865 12.332 9.65236 12.9726 10.336C14.6062 12.0723 14.7984 12.2363 15.1508 12.2363C15.3109 12.2363 15.5431 12.168 15.7033 12.0791C15.9115 11.9561 22.59 7.33498 23.1506 6.93166C23.2547 6.84963 23.4549 7.0342 24.7121 8.3467C25.4968 9.18068 26.2095 9.88478 26.2816 9.91896C26.3537 9.95314 26.5619 9.98049 26.7301 9.98049C26.9863 9.98049 27.1385 9.91896 27.4828 9.69338C27.9873 9.35158 35.0021 4.47756 35.899 3.84182L36.5236 3.39748L36.4675 4.19045C36.4035 5.09963 36.4675 5.26369 36.956 5.40041C37.3084 5.50295 37.7488 5.39357 37.925 5.16115C38.0051 5.05861 38.1172 4.48439 38.2373 3.54103C38.4935 1.62697 38.4935 1.49025 38.2213 1.23049L37.997 1.01857L36.2353 0.85451C33.9691 0.63576 33.7609 0.63576 33.5127 0.847674Z" fill="white"/>
<path d="M33.1764 8.29883L32.9521 8.46289V21.2256V33.9883L33.1764 34.1523L33.4006 34.3164H36.9561H40.5035L40.7518 34.1387L41 33.9609V21.2256V8.49023L40.7518 8.3125L40.5035 8.13477H36.9561H33.4006L33.1764 8.29883ZM39.3984 21.2256V32.8809H36.9961H34.5938V21.2256V9.57031H36.9961H39.3984V21.2256Z" fill="white"/>
<path d="M22.3258 12.5439C22.2057 12.6055 22.0695 12.708 22.0215 12.7832C21.9654 12.8652 21.9414 16.3721 21.9414 23.4131V33.9199L22.1736 34.1182L22.4059 34.3164H25.9854H29.5648L29.7971 34.1182L30.0293 33.9199V23.3857V12.8584L29.8371 12.667L29.6449 12.4756L26.0895 12.4619C23.0705 12.4482 22.51 12.4619 22.3258 12.5439ZM28.3477 23.3789V32.8809H25.9854H23.623V23.3789V13.877H25.9854H28.3477V23.3789Z" fill="white"/>
<path d="M11.2029 15.7842L10.9707 15.9824V24.9512V33.9199L11.2029 34.1182L11.4352 34.3164H15.0146H18.5941L18.8264 34.1182L19.0586 33.9199V24.9512V15.9824L18.8264 15.7842L18.5941 15.5859H15.0146H11.4352L11.2029 15.7842ZM17.377 24.9512V32.8809H15.0146H12.6523V24.9512V17.0215H15.0146H17.377V24.9512Z" fill="white"/>
<path d="M0.248242 19.0449L0 19.2227V26.5918V33.9609L0.248242 34.1387L0.496484 34.3164H4.04395H7.59941L7.82363 34.1523L8.04785 33.9883V26.5918V19.1953L7.82363 19.0312L7.59941 18.8672H4.04395H0.496484L0.248242 19.0449ZM6.40625 26.5918V32.8809H4.00391H1.60156V26.5918V20.3027H4.00391H6.40625V26.5918Z" fill="white"/>
</g>
<defs>
<clipPath id="clip0_34_370">
<rect width="41" height="35" fill="white"/>
</clipPath>
</defs>
</svg>
