<svg width="41" height="41" viewBox="0 0 41 41" fill="none" xmlns="http://www.w3.org/2000/svg">
<path d="M19.4874 0.121117C19.1831 0.185179 18.7106 0.337328 18.4464 0.465452C17.7337 0.809789 0.500853 13.1979 0.252611 13.5422C-0.14778 14.1108 -0.0677016 14.8795 0.460814 15.4641C0.797142 15.8405 1.13347 16.0006 1.58992 16.0006C2.06238 16.0006 2.33464 15.8645 3.43972 15.0637C7.21941 12.333 19.4954 3.55647 19.7116 3.42834C20.136 3.1801 20.6405 3.14006 21.0569 3.32424C21.2491 3.41233 25.269 6.2551 29.9776 9.6344C34.6942 13.0137 38.6581 15.8324 38.8022 15.8885C39.1065 16.0166 39.611 16.0326 39.8993 15.9205C40.2436 15.7924 40.7321 15.2879 40.8762 14.9115C41.0444 14.4631 40.9964 13.9346 40.7401 13.5582C40.612 13.366 38.2977 11.6604 33.6612 8.33713C29.8735 5.62248 25.9497 2.80373 24.9327 2.07502C22.8827 0.601585 22.3382 0.289281 21.4333 0.113109C20.6805 -0.0390396 20.2241 -0.0390396 19.4874 0.121117Z" fill="#F8F8F8"/>
<path d="M19.6234 8.08089C18.5984 8.25706 18.3021 8.44925 11.5596 13.318C7.99609 15.8965 4.87305 18.1948 4.63281 18.427C4.09629 18.9555 3.64785 19.6922 3.40762 20.445L3.23145 21.0055V29.0133V37.0211L3.45566 37.6618C3.89609 38.919 4.71289 39.8559 5.87402 40.4325C6.99512 40.985 7.05918 40.993 12.7047 40.969C17.4133 40.945 17.7416 40.9369 17.9979 40.8008C18.3182 40.6246 18.6305 40.3043 18.7586 40.0241C18.8146 39.8879 18.8627 38.6387 18.8867 36.1242L18.9268 32.4326L19.167 32.0883C19.8316 31.1514 21.1449 31.1514 21.8096 32.0883L22.0498 32.4326L22.0898 36.1242C22.1139 38.6387 22.1619 39.8879 22.218 40.0241C22.3461 40.3043 22.6584 40.6246 22.9787 40.8008C23.235 40.9369 23.5473 40.945 28.4961 40.945C33.7332 40.945 33.7412 40.945 34.3178 40.7608C35.8553 40.2803 36.9924 39.1752 37.5209 37.6618L37.7451 37.0211V29.0133V21.0055L37.5689 20.445C37.3447 19.7323 36.8963 18.9715 36.3998 18.475C36.1916 18.2668 34.0855 16.6893 31.7152 14.9836C29.3529 13.278 26.4221 11.1639 25.2129 10.291C22.9146 8.62542 22.5783 8.41722 21.8496 8.201C21.3051 8.04085 20.192 7.97679 19.6234 8.08089ZM21.0889 11.3481C21.265 11.4282 24.268 13.5582 27.7594 16.0807C32.6041 19.5721 34.1656 20.7412 34.3258 20.9895L34.542 21.3178L34.566 28.8451C34.59 37.2694 34.6221 36.7889 34.0215 37.3334C33.8533 37.4856 33.573 37.6457 33.4049 37.6938C33.2127 37.7498 31.6992 37.7819 29.2008 37.7819H25.293V35.1553C25.293 32.1924 25.2449 31.8 24.7645 30.8151C24.3961 30.0703 23.4912 29.1334 22.7545 28.7491C22.1139 28.4127 21.1689 28.1725 20.4883 28.1725C19.8076 28.1725 18.8627 28.4127 18.2221 28.7491C17.4854 29.1334 16.5805 30.0703 16.2121 30.8151C15.7316 31.8 15.6836 32.1924 15.6836 35.1553V37.7819H11.7838C9.27734 37.7819 7.76387 37.7498 7.57168 37.6938C7.40352 37.6457 7.12324 37.4856 6.95508 37.3334C6.35449 36.7889 6.38652 37.2694 6.41055 28.8451L6.43457 21.3178L6.64277 20.9975C6.81094 20.7492 8.39648 19.5641 13.1691 16.1127C16.6445 13.6063 19.6475 11.4762 19.8396 11.3721C20.2641 11.1559 20.6564 11.1479 21.0889 11.3481Z" fill="#F8F8F8"/>
</svg>
