<svg width="40" height="40" viewBox="0 0 40 40" fill="none" xmlns="http://www.w3.org/2000/svg">
<g clip-path="url(#clip0_34_344)">
<path d="M13.2578 1.96095C12.4219 2.16407 11.5625 2.91407 11.2422 3.73438C11.0781 4.14845 11.0625 4.32032 11.0312 6.46094L11 8.74219L6.69531 8.76563L2.38281 8.78907L1.92188 9.00782C1.03125 9.42188 0.484375 10.0078 0.164062 10.8984L-0.0078125 11.3672L0.015625 23.5547L0.0390625 35.7422L0.289062 36.25C0.625 36.9375 1.15625 37.4531 1.875 37.8047L2.46094 38.0859L19.7656 38.1094C31.6016 38.1172 37.1953 38.1016 37.4609 38.0469C38.3828 37.8516 39.2734 37.1484 39.7109 36.2578L39.9609 35.7422L39.9844 23.5547L40.0078 11.3672L39.8359 10.8984C39.5156 10.0078 38.9688 9.42188 38.0781 9.00782L37.6172 8.78907L33.3047 8.76563L29 8.74219L28.9688 6.46094C28.9375 4.32032 28.9219 4.15626 28.7578 3.72657C28.5078 3.09376 27.875 2.4297 27.25 2.14063L26.7578 1.91407L20.1562 1.89845C16.4688 1.89063 13.4219 1.92188 13.2578 1.96095ZM26.5078 3.62501C26.8359 3.75782 27.1562 4.14063 27.2656 4.51563C27.3047 4.6797 27.3438 5.66407 27.3438 6.77344V8.75001H26.4141H25.4766L25.4531 7.29688L25.4297 5.84376L25.1719 5.6172L24.9219 5.39063H20H15.0781L14.8281 5.6172L14.5703 5.84376L14.5469 7.29688L14.5234 8.75001H13.5859H12.6562V6.77344C12.6562 5.66407 12.6953 4.6797 12.7344 4.51563C12.8359 4.14845 13.1641 3.75782 13.4766 3.62501C13.8281 3.46876 26.1406 3.46876 26.5078 3.62501ZM23.8281 7.89063V8.75001H20H16.1719V7.89063V7.03126H20H23.8281V7.89063ZM4.375 12.375V14.3594L4.61719 14.5625L4.85938 14.7656H7.89844C9.84375 14.7656 11 14.7344 11.1016 14.6875C11.4453 14.5 11.4844 14.2578 11.4844 12.2656V10.3906H20H28.5156V12.2656C28.5156 14.2578 28.5547 14.5 28.8984 14.6875C29 14.7344 30.1562 14.7656 32.1016 14.7656H35.1406L35.3828 14.5625L35.625 14.3594V12.3672V10.375L36.4766 10.4063C37.2812 10.4297 37.3516 10.4453 37.6641 10.6641C37.8672 10.8047 38.0781 11.0547 38.1953 11.2891L38.3984 11.6719V23.3203C38.3984 29.7188 38.375 35.0859 38.3359 35.2422C38.2578 35.6094 37.7812 36.1563 37.3906 36.3359C37.0859 36.4766 36.4141 36.4844 20 36.4844C3.65625 36.4844 2.91406 36.4766 2.61719 36.3359C2.28125 36.1875 1.84375 35.7422 1.69531 35.3984C1.57031 35.125 1.51562 12.4609 1.64062 11.8047C1.74219 11.25 2.04688 10.8047 2.49219 10.5703C2.78906 10.4141 2.95312 10.3906 3.60938 10.3906H4.375V12.375ZM9.84375 11.7578V13.125H7.89062H5.9375V11.7578V10.3906H7.89062H9.84375V11.7578ZM34.0625 11.7578V13.125H32.1094H30.1562V11.7578V10.3906H32.1094H34.0625V11.7578Z" fill="white"/>
<path d="M18.5938 12.8906C13.8985 13.5469 10.211 17.1016 9.41408 21.75C9.25783 22.6719 9.25783 24.4531 9.42189 25.3984C9.68752 26.9453 10.3672 28.5547 11.3047 29.8516C11.8594 30.6328 13.1406 31.8828 13.9063 32.3984C15.1328 33.2266 16.586 33.8281 18.0235 34.1172C18.9688 34.2969 21.0313 34.2969 21.9766 34.1172C24.1016 33.6953 25.9219 32.7422 27.4766 31.2266C29.1563 29.5938 30.1797 27.6484 30.586 25.3203C30.7422 24.4609 30.7344 22.6328 30.586 21.75C29.8281 17.3359 26.5235 13.9453 22.0703 13.0078C21.336 12.8516 19.3438 12.7891 18.5938 12.8906ZM21.2188 14.5391C22.5 14.7188 24.0235 15.3047 25.086 16.0234C25.8906 16.5625 26.9922 17.6875 27.5469 18.5234C28.1328 19.4063 28.5078 20.2266 28.8047 21.2969C29.0078 22.0156 29.0235 22.1719 29.0156 23.5547C29.0156 24.9141 29 25.1016 28.8047 25.8203C28.5469 26.7656 27.8203 28.2734 27.2656 29C27.0469 29.2891 26.5547 29.8125 26.1797 30.1719C23.0625 33.0859 18.5078 33.4609 14.961 31.0859C12.9063 29.7109 11.5156 27.5859 11.0547 25.1172C10.8516 24.0703 10.9297 22.2578 11.2031 21.2578C11.6641 19.6016 12.4688 18.2344 13.6797 17.0703C14.5469 16.2344 15.1485 15.8047 16.125 15.3438C17.7344 14.5859 19.5156 14.2969 21.2188 14.5391Z" fill="white"/>
<path d="M17.6797 18.0312C17.3984 18.25 17.3438 18.5391 17.3438 19.7734V20.9375H16.1328C15.3672 20.9375 14.8516 20.9688 14.7266 21.0312C14.3281 21.2109 14.2969 21.3828 14.2969 23.6016V25.6406L14.5625 25.9062L14.8281 26.1719H16.0781H17.3281L17.3594 27.4688L17.3828 28.7656L17.6406 28.9922L17.8906 29.2188H20H22.1094L22.3594 28.9922L22.6172 28.7656L22.6406 27.4688L22.6719 26.1719H23.9219H25.1719L25.4375 25.9062L25.7031 25.6406V23.6016C25.7031 21.3828 25.6719 21.2109 25.2734 21.0312C25.1484 20.9688 24.6328 20.9375 23.8672 20.9375H22.6562V19.7734C22.6562 18.5391 22.6172 18.3203 22.3359 18.0547C22.1641 17.8984 22.0859 17.8906 20.0078 17.8906C18.0859 17.8906 17.8359 17.9062 17.6797 18.0312ZM21.0156 20.7891C21.0156 21.5 21.0469 22.1094 21.0938 22.1953C21.2656 22.5156 21.5625 22.5781 22.8516 22.5781H24.0625V23.5547V24.5312H22.8516C21.5625 24.5312 21.2656 24.5938 21.0938 24.9141C21.0469 25 21.0156 25.6094 21.0156 26.3203V27.5781H20H18.9844V26.3203C18.9844 25.6094 18.9531 25 18.9062 24.9141C18.7344 24.5938 18.4375 24.5312 17.1484 24.5312H15.9375V23.5547V22.5781H17.1484C18.4375 22.5781 18.7344 22.5156 18.9062 22.1953C18.9531 22.1094 18.9844 21.5 18.9844 20.7891V19.5312H20H21.0156V20.7891Z" fill="white"/>
</g>
<defs>
<clipPath id="clip0_34_344">
<rect width="40" height="40" fill="white"/>
</clipPath>
</defs>
</svg>
