<svg width="1384" height="808" viewBox="0 0 1384 808" fill="none" xmlns="http://www.w3.org/2000/svg">
<path d="M598.667 184.8C582.4 189.2 571.6 197.067 565.733 209.067L562 216.667L561.6 284.933L561.2 353.333L553.2 349.2C548.8 347.067 539.067 343.2 531.6 340.667C469.333 319.867 412.933 336.4 381.467 384.667C356.933 422.133 345.067 469.467 349.067 512.933C352.8 552.4 366 588.667 382.133 604.133C405.067 625.867 437.733 644.533 466.667 652.267C483.2 656.667 509.867 656.667 524 652.267C537.2 648.133 548.8 641.867 563.067 631.333C587.6 613.2 608.267 590.133 618.667 569.333C628.667 549.467 628 563.467 628 362.8V182.667L617.067 182.8C610.933 182.8 602.667 183.733 598.667 184.8ZM511.733 394.933C541.867 406 559.733 452.133 556.667 510.533C555.067 540.533 548.133 560.533 533.733 576.133C525.467 584.933 518.8 589.333 507.867 593.2C470.4 606 439.067 585.333 424.533 538C420.933 526.533 420.8 524.667 420.8 498C420.8 473.6 421.067 468.533 423.6 458.533C432 425.467 444.133 407.333 464.667 397.2C478.267 390.533 497.067 389.6 511.733 394.933Z" fill="white"/>
<path d="M888.933 184.667C865.067 191.2 849.733 208 843.2 234.667C840.8 244.133 840.667 254.267 840.533 425.333C840.4 561.067 840 606.933 838.8 609.867C836.133 616.533 832 621.333 826.4 624.133C821.467 626.667 819.6 626.8 801.467 626C779.067 624.933 774.267 623.867 772.133 619.2C771.067 616.8 770.667 587.467 770.667 512.933C770.667 401.867 770.533 400 763.467 384.533C759.333 375.6 750 365.6 741.6 360.933C729.6 354.4 721.333 353.333 681.733 353.333H645.333V368.4V383.6L653.067 380.933C662.8 377.733 675.067 378.4 681.867 382.533C688.933 386.933 693.2 396.933 694.8 412.8C695.6 420.4 696 461.867 695.867 510.667C695.467 604.667 695.2 601.067 704.533 620.667C712.533 637.6 726.533 649.6 743.333 654C749.867 655.6 760.667 656 804 656C856.4 656 856.667 655.867 864.4 652.8C877.733 647.333 886.933 641.067 898 630C905.333 622.667 910 616.533 912.933 610.667C921.733 593.067 921.467 596.8 921.467 480.933L921.333 376H946H970.667V356V336H946H921.333V282.8C921.333 229.867 921.333 229.733 924.4 225.2C928.133 219.733 934.667 215.2 941.867 213.067C945.333 212.133 956 211.6 970.4 211.867L993.333 212.133V197.333V182.667L944.4 182.8C908.133 182.933 893.6 183.333 888.933 184.667Z" fill="white"/>
<path d="M692.533 252.8C684.667 255.6 676.133 263.467 672.533 271.2C668.8 279.333 668.267 290.8 671.333 300.933C673.6 308.533 679.2 314 689.467 318.667C706.933 326.533 729.733 315.733 735.333 296.933C737.867 288.533 737.867 276 735.6 270.267C728.933 254.533 709.733 246.667 692.533 252.8Z" fill="white"/>
</svg>
