<svg width="35" height="35" viewBox="0 0 35 35" fill="none" xmlns="http://www.w3.org/2000/svg">
<g clip-path="url(#clip0_145_433)">
<path d="M6.67871 0.109371C3.43164 0.697262 0.806641 3.28125 0.143555 6.54199C0 7.21875 0 7.41015 0 17.5C0 27.5898 0 27.7812 0.143555 28.458C0.813477 31.7598 3.44531 34.3232 6.76074 34.8975C7.62891 35.0479 17.0762 35.0479 17.9512 34.8975C20.877 34.3848 23.3379 32.252 24.2949 29.3877C24.5889 28.5127 24.6777 27.7949 24.6777 26.332C24.6777 25.0264 24.6709 24.9922 24.5068 24.7051C24.2539 24.2744 23.8574 24.0625 23.3105 24.0625C22.7637 24.0625 22.3672 24.2744 22.1211 24.6982C21.9707 24.9648 21.957 25.0811 21.9229 26.2158C21.875 27.6514 21.7725 28.2256 21.3828 29.0527C20.8359 30.2422 20.0156 31.0762 18.833 31.6504C17.6162 32.2383 17.7324 32.2314 12.3389 32.2314C6.95215 32.2314 7.06152 32.2383 5.84473 31.6504C4.66895 31.0762 3.92383 30.3311 3.34961 29.1553C2.72754 27.8701 2.76855 28.7178 2.76855 17.5C2.76855 6.28222 2.72754 7.12988 3.34961 5.84472C3.92383 4.66894 4.66895 3.92383 5.84473 3.34961C7.06152 2.75488 6.94531 2.76855 12.373 2.76855C17.0762 2.76855 17.1309 2.76855 17.7324 2.92578C18.8467 3.20605 19.9336 3.88965 20.6582 4.75781C21.0889 5.27051 21.6289 6.37793 21.7725 7.04101C21.8408 7.35547 21.9023 8.03222 21.9229 8.78418C21.957 9.91894 21.9707 10.0352 22.1211 10.3018C22.3672 10.7256 22.7637 10.9375 23.3105 10.9375C23.8574 10.9375 24.2539 10.7256 24.5068 10.2949C24.6777 10.0078 24.6777 9.97363 24.6777 8.62012C24.6777 7.49219 24.6504 7.10254 24.5342 6.54199C23.8711 3.26074 21.2256 0.676754 17.9512 0.102535C17.0967 -0.0410194 7.49902 -0.0410194 6.67871 0.109371Z" fill="#FBFBFB"/>
<path d="M28.9365 11.3887C28.5127 11.6416 28.3008 12.0381 28.3008 12.585C28.3008 12.9199 28.335 13.084 28.458 13.2754C28.54 13.4121 29.3672 14.2666 30.29 15.1689C31.2197 16.0713 32.0264 16.9189 32.0879 17.0488C32.2109 17.3154 32.2314 17.8076 32.1221 18.0947C32.0879 18.1973 31.2607 19.0859 30.29 20.0635C29.3125 21.041 28.4717 21.9365 28.4102 22.0596C28.3418 22.1895 28.3008 22.4492 28.3008 22.7021C28.3008 23.5361 28.834 24.0625 29.6748 24.0625C30.0508 24.0625 30.167 24.0283 30.4268 23.8643C30.5908 23.7617 31.5273 22.8594 32.5117 21.8682C34.2139 20.1455 34.3096 20.0361 34.5762 19.4824C34.9453 18.7031 35.0273 18.293 34.9795 17.3906C34.9385 16.5293 34.7881 16.0029 34.3916 15.4014C34.0977 14.9502 30.7549 11.6006 30.3652 11.3682C29.9961 11.1426 29.3262 11.1494 28.9365 11.3887Z" fill="#FBFBFB"/>
<path d="M12.7354 16.3105C12.3115 16.5635 12.0996 16.96 12.0996 17.5C12.0996 18.0469 12.3115 18.4434 12.7422 18.6963L13.0361 18.8672H20.8496H28.6631L28.957 18.6963C29.3877 18.4434 29.5996 18.0469 29.5996 17.5C29.5996 16.9531 29.3877 16.5566 28.957 16.3037L28.6631 16.1328H20.8428H13.0225L12.7354 16.3105Z" fill="#FBFBFB"/>
</g>
<defs>
<clipPath id="clip0_145_433">
<rect width="35" height="35" fill="white"/>
</clipPath>
</defs>
</svg>
