<svg width="1079" height="312" viewBox="0 0 1079 312" fill="none" xmlns="http://www.w3.org/2000/svg">
<g clip-path="url(#clip0_67_5)">
<path d="M168.535 9.49559C146.793 32.2852 134.234 58.1947 129.642 89.666C128.427 97.6695 128.562 101.875 130.047 108.929C130.992 113.948 131.398 118.017 130.722 118.017C130.182 118.017 125.321 114.355 120.189 110.014C101.013 93.8712 81.0263 86.953 50.6414 85.8678C19.3112 84.6469 16.8804 86.953 16.8804 117.339C16.8804 138.908 18.7711 146.369 28.8993 166.174C35.7866 179.603 38.2174 182.316 41.8635 180.417C45.6448 178.383 45.2396 176.076 39.8379 166.174C37.137 161.426 33.0857 152.473 30.79 146.233C26.7386 135.923 26.4685 133.617 26.3335 118.696C26.3335 105.266 26.7386 101.603 28.7643 98.6191C31.06 94.9565 31.1951 94.9565 46.9952 94.9565C86.9682 94.9565 116.138 111.099 138.015 145.148C141.526 150.71 145.442 158.17 146.658 161.697C149.088 169.023 151.249 171.329 155.435 170.65C161.512 169.836 161.512 166.445 155.705 156.543C137.069 125.207 134.369 86.2747 148.548 54.6678C155.57 39.2034 176.502 12.2086 181.499 12.2086C184.335 12.2086 196.354 23.6034 203.376 32.9634C225.253 62.2643 235.516 104.995 228.764 138.094C225.253 155.322 218.636 170.243 204.861 191.541C198.244 202.122 197.569 205.377 202.161 207.141C205.267 208.362 209.723 202.664 219.851 184.758C229.304 168.073 233.626 157.356 237.812 141.078C240.783 129.819 241.053 129.276 251.181 119.238C268.602 101.875 287.643 94.1426 316.138 92.6504C331.262 91.8365 331.938 91.9721 334.909 94.9565C337.88 97.9408 338.015 98.7547 337.069 112.456C335.854 132.532 333.153 143.927 326.266 158.035C313.707 183.673 289.534 203.343 257.258 214.195C250.641 216.365 244.564 219.214 243.754 220.299C242.134 222.876 244.294 226.946 247.4 227.624C248.481 227.896 259.554 223.69 271.978 218.264C294.26 208.769 294.666 208.633 300.878 210.261C323.97 216.094 349.763 235.628 349.763 247.294C349.763 254.619 330.722 270.762 309.115 281.614C288.048 292.33 266.576 295.45 247.535 290.567C226.874 285.276 214.314 277.002 178.663 245.123C150.574 220.028 141.256 214.059 120.189 207.276C111.411 204.563 107.36 204.156 91.1545 204.292C74.4091 204.428 70.898 204.835 60.7697 208.09C41.1883 214.602 17.8257 229.523 5.80685 243.36C-0.8103 250.821 -0.270125 254.076 10.1282 265.471C45.2396 304.132 83.9972 314.306 131.128 297.078C145.172 292.059 155.841 285.276 156.381 281.071C157.191 275.51 153.005 276.052 138.015 283.377C119.649 292.195 105.874 295.722 89.9391 295.722C65.6313 295.722 46.9952 287.04 22.5523 264.522C11.3436 254.212 11.0736 253.534 17.0155 246.887C29.1694 233.322 53.6124 219.35 72.5185 215.144C93.5853 210.396 115.733 213.516 134.909 223.962C140.581 226.946 152.059 235.356 160.432 242.546C211.208 286.226 220.662 292.873 239.028 298.57C252.802 302.911 276.435 302.911 292.37 298.57C312.491 293.144 336.529 279.172 354.22 262.758C364.213 253.398 364.618 249.057 356.381 236.577C346.792 221.656 335.584 212.838 317.083 205.513C311.951 203.478 307.9 201.172 307.9 200.494C307.9 199.68 312.356 194.39 317.758 188.556C323.025 182.859 329.507 174.584 332.073 170.515C338.555 159.527 343.957 142.435 345.847 127.513C347.333 115.033 346.928 92.6504 345.037 87.7669C343.551 84.2399 338.69 83.426 321.404 83.5617C302.768 83.833 291.83 85.7321 277.785 91.1582C267.117 95.2278 250.101 105.673 248.075 109.336C247.535 110.421 245.78 111.235 244.429 111.235C241.458 111.235 240.918 109.471 239.703 95.2278C237.272 66.8765 223.633 40.4243 197.839 13.8365C187.846 3.66254 183.389 -6.5184e-05 180.959 -6.5184e-05C178.528 -6.5184e-05 175.017 2.71298 168.535 9.49559Z" fill="#F8F8F8"/>
<path d="M509.52 65.3843C502.633 70.2677 499.257 77.7286 499.932 85.7321C501.553 101.875 518.163 110.828 532.073 102.96C545.712 95.2277 546.522 74.473 533.423 65.3843C530.047 63.2138 527.076 62.3999 521.404 62.3999C515.732 62.3999 512.761 63.2138 509.52 65.3843Z" fill="#F8F8F8"/>
<path d="M600.675 64.4347C591.087 68.0973 583.794 74.2017 580.148 81.6626C576.637 89.1234 573.936 105.266 573.936 119.645V127.513H569.21H564.483V143.656V159.934L568.94 160.341L573.261 160.748L573.666 203.071L573.936 245.53H591.492H609.048L609.318 203.071L609.723 160.748L624.983 160.341L640.108 159.934V143.791V127.513H625.253C607.697 127.513 607.967 127.649 610.128 113.541C612.019 101.196 616.61 95.906 625.523 95.906C628.764 95.906 633.355 96.8556 635.786 98.2121L640.108 100.518V83.426V66.4695L636.461 64.8417C630.655 62.3999 606.617 62.1286 600.675 64.4347Z" fill="#F8F8F8"/>
<path d="M432.14 154.643V245.53H449.696H467.252V154.643V63.7565H449.696H432.14V154.643Z" fill="#F8F8F8"/>
<path d="M698.447 126.97C676.84 132.803 659.959 152.066 655.908 175.67C653.882 187.336 656.178 206.191 660.904 216.501C665.766 227.082 677.38 238.883 687.778 243.631C695.206 247.023 698.041 247.565 712.626 247.972C731.667 248.65 741.661 246.209 753.004 238.07C759.621 233.322 769.75 221.791 769.75 218.807C769.75 217.993 762.862 215.009 754.625 212.16L739.365 207.141L733.963 212.703C728.426 218.264 721.404 221.113 713.301 221.113C704.118 221.113 694.665 212.838 692.1 202.529L690.479 196.017L732.072 195.61L773.801 195.339V187.471C773.666 158.577 755.57 133.617 729.777 126.835C720.054 124.257 707.9 124.393 698.447 126.97ZM725.185 151.659C729.642 153.83 734.503 160.748 736.664 167.802L737.474 170.922H714.517C688.453 170.922 688.723 171.057 694.53 160.748C700.067 150.71 714.787 146.369 725.185 151.659Z" fill="#F8F8F8"/>
<path d="M1007.29 126.021C1001.48 127.92 997.568 130.362 990.276 137.416L983.119 144.198V135.788V127.513H965.563H948.007V212.296V297.078H965.563H983.119V262.487C983.119 243.496 983.389 227.896 983.659 227.896C984.064 227.896 987.44 231.287 991.356 235.357C1000.94 245.53 1007.02 248.243 1020.39 248.243C1029.03 248.243 1032.54 247.565 1038.49 244.717C1052.53 238.205 1065.09 220.57 1068.33 202.8C1070.36 191.948 1069.01 173.635 1065.36 162.918C1061.98 152.88 1052.53 139.722 1044.16 133.346C1034.57 126.021 1018.1 122.765 1007.29 126.021ZM1016.47 161.562C1028.22 166.038 1035.52 182.723 1031.73 196.696C1029.3 205.649 1020.8 213.788 1012.42 215.009C1004.46 216.23 995.408 212.024 989.331 204.428C982.443 195.746 982.849 178.111 990.141 168.751C996.353 160.883 1007.02 157.899 1016.47 161.562Z" fill="#F8F8F8"/>
<path d="M503.713 186.522V245.53H521.269H538.825V186.522V127.513H521.269H503.713V186.522Z" fill="#F8F8F8"/>
<path d="M798.379 167.802L798.784 208.226L803.105 217.315C808.777 229.388 816.745 237.798 827.683 243.224C836.461 247.43 836.866 247.565 855.502 247.565C874.273 247.565 874.544 247.565 883.591 243.089C899.392 235.221 909.925 221.927 912.896 205.92C913.706 202.122 914.246 182.995 914.246 163.325V127.513H896.015H877.785V161.019C877.785 198.866 876.974 202.529 868.061 209.447C859.554 215.823 851.586 215.823 843.889 209.311C835.246 201.986 834.571 198.459 834.571 161.019V127.513H816.205H797.839L798.379 167.802Z" fill="#F8F8F8"/>
</g>
<defs>
<clipPath id="clip0_67_5">
<rect width="1079" height="312" fill="white"/>
</clipPath>
</defs>
</svg>
