<svg width="42" height="42" viewBox="0 0 42 42" fill="none" xmlns="http://www.w3.org/2000/svg">
<g clip-path="url(#clip0_34_338)">
<path d="M14.0683 0.123047C9.3187 0.820312 5.01206 3.62578 2.47729 7.67813C1.27144 9.60586 0.44292 11.8863 0.122998 14.134C-0.0328613 15.2168 -0.0328613 17.5957 0.122998 18.6785C0.803857 23.4691 3.59292 27.7758 7.67808 30.3352C9.68784 31.5902 12.1406 32.4598 14.4457 32.7305C15.5695 32.8617 18.2191 32.7961 19.2363 32.6074C21.2542 32.2383 23.305 31.4672 24.9621 30.45L25.4378 30.1547L31.0324 35.741C34.1085 38.8172 36.791 41.4258 36.9878 41.5488C37.4964 41.8605 38.0132 42 38.7187 42C39.982 42 40.9089 41.4668 41.6226 40.3348C41.8605 39.9492 42 39.3668 42 38.7188C42 38.0133 41.8605 37.4965 41.5488 36.9879C41.4257 36.791 38.8171 34.1086 35.741 31.0324L30.1546 25.4379L30.4499 24.9621C31.4671 23.3051 32.2382 21.2543 32.6074 19.2363C32.796 18.2191 32.8617 15.5695 32.7304 14.4457C32.3941 11.591 31.2292 8.73633 29.4164 6.35742C28.7765 5.5125 27.2999 4.03594 26.455 3.3961C24.15 1.64883 21.4757 0.5168 18.6785 0.123047C17.6367 -0.0246086 15.0855 -0.0246086 14.0683 0.123047ZM18.5226 1.85391C22.4683 2.47734 25.8808 4.52813 28.1941 7.66172C29.6871 9.67149 30.5566 11.7715 30.9585 14.2898C31.1226 15.3234 31.1308 17.4152 30.9667 18.498C29.9906 24.9703 24.9703 29.9906 18.498 30.9668C17.4152 31.1309 15.3234 31.1227 14.2898 30.9586C10.3441 30.3352 6.93159 28.2844 4.61831 25.1508C3.12534 23.141 2.25581 21.041 1.85386 18.5227C1.68159 17.4645 1.68159 15.348 1.85386 14.2898C2.47729 10.3441 4.52808 6.93164 7.66167 4.61836C9.63042 3.16641 11.591 2.32149 14.0683 1.88672C15.1593 1.68985 17.4152 1.67344 18.5226 1.85391ZM30.2613 28.0055L31.3605 29.1129L30.8191 29.6953C30.5238 30.0152 30.0152 30.5238 29.6953 30.8191L29.1046 31.3605L27.9972 30.2531L26.8816 29.1375L27.9808 28.0301C28.5878 27.423 29.0964 26.9145 29.121 26.9145C29.1457 26.9063 29.6624 27.3984 30.2613 28.0055ZM40.0394 37.8902C40.7039 38.9156 39.9574 40.2773 38.7269 40.2773C38.489 40.2773 38.1855 40.2199 38.0378 40.1461C37.8902 40.0723 36.1101 38.3496 34.0675 36.3152L30.3679 32.6238L31.4835 31.4918L32.6074 30.368L36.2085 33.9445C38.1855 35.9215 39.9082 37.6934 40.0394 37.8902Z" fill="white"/>
<path d="M14.3555 3.4043C13.4039 3.56836 12.4605 3.83086 11.5418 4.1836C8.26875 5.44688 5.44687 8.26875 4.18359 11.5418C3.53555 13.2152 3.28125 14.5852 3.28125 16.4063C3.28125 18.2273 3.53555 19.5973 4.18359 21.2707C5.44687 24.5438 8.26875 27.3656 11.5418 28.6289C13.2152 29.277 14.5852 29.5312 16.4062 29.5312C18.2273 29.5312 19.5973 29.277 21.2707 28.6289C24.5437 27.3656 27.3656 24.5438 28.6289 21.2707C29.277 19.5973 29.5312 18.2273 29.5312 16.4063C29.5312 13.4285 28.6699 10.8363 26.9062 8.49024C24.8555 5.75039 21.8695 3.97031 18.375 3.3961C17.5137 3.25664 15.2086 3.26484 14.3555 3.4043ZM18.2355 5.12696C19.3922 5.33203 20.3191 5.63555 21.3691 6.14414C22.657 6.77578 23.5922 7.45664 24.5848 8.47383C27.4805 11.4598 28.5141 15.6352 27.3492 19.6711C27.0867 20.5816 26.4633 21.8941 25.8645 22.7965C25.2656 23.707 23.9695 25.0277 23.0672 25.6758C22.6734 25.9547 21.9105 26.3977 21.3691 26.6684C19.7285 27.4641 18.2437 27.8086 16.4062 27.8086C14.5687 27.8086 13.084 27.4641 11.4434 26.6684C10.1555 26.0367 9.22031 25.3559 8.22773 24.3387C5.33203 21.3527 4.30664 17.1938 5.46328 13.1414C5.73398 12.198 6.50508 10.6395 7.13672 9.74531C7.78477 8.84297 9.10547 7.54688 10.016 6.94805C11.3695 6.05391 12.9281 5.42227 14.5195 5.13516C15.3809 4.9793 17.3496 4.9793 18.2355 5.12696Z" fill="white"/>
<path d="M15.7992 6.77578C15.627 6.94805 15.5859 7.07109 15.5859 7.37461C15.5941 8.03086 15.8238 8.18672 16.9313 8.28516C18.0141 8.38359 18.7031 8.54766 19.6055 8.9332C21.4102 9.7125 22.8539 11.0906 23.7234 12.8625C24.1746 13.7813 24.4043 14.0273 24.8309 14.0273C25.3723 14.0273 25.7414 13.568 25.6512 13.002C25.5938 12.6328 25.0523 11.55 24.552 10.7953C24.0516 10.0488 22.7637 8.76094 22.0172 8.26055C20.352 7.16133 18.4898 6.5625 16.7344 6.5625C16.0699 6.5625 16.0043 6.57891 15.7992 6.77578Z" fill="white"/>
<path d="M24.8227 15.7992C24.6504 15.9715 24.6094 16.0945 24.6094 16.4063C24.6094 16.718 24.6504 16.841 24.8227 17.0133C24.9949 17.1855 25.118 17.2266 25.4297 17.2266C25.7414 17.2266 25.8645 17.1855 26.0367 17.0133C26.209 16.841 26.25 16.718 26.25 16.4063C26.25 16.0945 26.209 15.9715 26.0367 15.7992C25.8645 15.627 25.7414 15.5859 25.4297 15.5859C25.118 15.5859 24.9949 15.627 24.8227 15.7992Z" fill="white"/>
</g>
<defs>
<clipPath id="clip0_34_338">
<rect width="42" height="42" fill="white"/>
</clipPath>
</defs>
</svg>
