<svg width="42" height="42" viewBox="0 0 42 42" fill="none" xmlns="http://www.w3.org/2000/svg">
<path d="M14.6918 0.155869C13.1332 0.615246 11.673 1.85392 10.9184 3.33868C10.8035 3.56837 10.6887 3.69142 10.5902 3.69142C10.3113 3.69142 9.15469 4.33126 8.68711 4.74962C8.11289 5.25821 7.69453 5.86525 7.36641 6.64454C7.15313 7.16134 7.11211 7.39923 7.07109 8.14571L7.03008 9.03165L6.71836 9.18751C6.22617 9.44181 5.43047 10.1473 5.02852 10.6887C4.55273 11.3367 4.06875 12.3539 3.90469 13.0676C3.71602 13.8715 3.73242 15.0774 3.9457 15.9059L4.11797 16.5785L3.675 17.0461C3.42891 17.3004 3.07617 17.768 2.8957 18.0879C2.3625 18.982 2.20664 19.5645 2.15742 20.7539C2.1082 21.9844 2.26406 22.7555 2.78906 23.8547L3.10898 24.5274L2.78906 25.1262C2.32148 25.9957 2.13281 26.7668 2.13281 27.8086C2.13281 29.1785 2.56758 30.4254 3.4043 31.4508L3.77344 31.9102V32.7551C3.77344 34.166 4.1918 35.3965 5.05313 36.5203C6.02109 37.7754 7.75195 38.7106 9.12188 38.7188C9.49922 38.7188 9.51563 38.727 9.87656 39.2356C10.8609 40.6055 12.2719 41.5406 13.8633 41.877C14.7082 42.0574 15.9879 42.0328 16.7836 41.8359C18.3586 41.434 19.8762 40.3266 20.6965 38.9895C20.8441 38.7516 20.9754 38.5629 21 38.5629C21.0246 38.5629 21.1559 38.7516 21.3035 38.9895C22.1238 40.3266 23.6414 41.434 25.2164 41.8359C26.0121 42.0328 27.2918 42.0574 28.1367 41.877C29.7281 41.5406 31.1391 40.6055 32.1234 39.2356C32.4844 38.727 32.5008 38.7188 32.8781 38.7188C34.2645 38.7106 35.9707 37.7836 36.9551 36.4957C37.8164 35.3883 38.2266 34.166 38.2266 32.7551V31.9102L38.5957 31.4508C40.0395 29.6789 40.2855 27.1277 39.2109 25.1262L38.891 24.5274L39.2109 23.8547C39.7359 22.7555 39.8918 21.9844 39.8426 20.7539C39.7934 19.5645 39.6375 18.982 39.1043 18.0879C38.9238 17.768 38.5711 17.3004 38.325 17.0461L37.882 16.5785L38.0543 15.9059C38.2676 15.0774 38.284 13.8715 38.0953 13.0676C37.9313 12.3539 37.4473 11.3367 36.9715 10.6887C36.5695 10.1473 35.7738 9.44181 35.2816 9.18751L34.9699 9.03165L34.9289 8.14571C34.8879 7.39923 34.8469 7.16134 34.6336 6.64454C34.3055 5.86525 33.8871 5.25821 33.3129 4.74962C32.8453 4.33126 31.6887 3.69142 31.4098 3.69142C31.3113 3.69142 31.1965 3.56837 31.0816 3.33868C30.3023 1.79649 28.752 0.525009 27.1523 0.123058C26.4059 -0.0738182 24.9293 -0.00819397 24.2238 0.2379C23.1082 0.631653 22.1484 1.32892 21.4676 2.21486C21.2379 2.51017 21.0328 2.74806 21 2.74806C20.9672 2.74806 20.7621 2.51017 20.5324 2.21486C19.8516 1.32892 18.8918 0.639854 17.7762 0.2379C17.0543 -0.0245972 15.4383 -0.0656128 14.6918 0.155869ZM17.6449 2.0754C18.7031 2.6004 19.548 3.59298 19.95 4.79884C20.1059 5.25821 20.1223 5.53712 20.1551 8.79376C20.1797 10.7297 20.1797 12.3047 20.1633 12.3047C20.1469 12.3047 19.9254 12.2309 19.6629 12.1406C19.384 12.0422 18.9902 11.9766 18.6785 11.9766C18.2191 11.9766 18.1207 12.0012 17.932 12.1899C17.7598 12.3621 17.7188 12.4852 17.7188 12.7969C17.7188 13.3219 17.973 13.5844 18.5637 13.6582C19.1625 13.7402 19.6383 14.0356 19.909 14.5031L20.1387 14.8887L20.1633 22.8457L20.1879 30.8027L19.7531 30.3762C18.6375 29.2852 17.0133 28.6289 15.4629 28.6289C14.9297 28.6289 14.8477 28.6535 14.6508 28.8422C14.4785 29.0145 14.4375 29.1375 14.4375 29.441C14.4457 30.0727 14.659 30.2367 15.6516 30.3516C17.0051 30.4992 17.9648 30.9832 18.8508 31.9594C19.6957 32.8781 20.0977 33.9199 20.0977 35.216C20.0977 36.3234 19.7941 37.2832 19.1297 38.2512C18.6293 38.9649 17.6285 39.7359 16.7754 40.0477C16.0945 40.2938 14.8395 40.343 14.1094 40.1543C12.8625 39.8344 11.6813 38.9238 11.0086 37.7672C10.5984 37.0617 10.5 37.0125 9.39258 36.9797C8.71172 36.9551 8.49023 36.9141 8.08008 36.7254C7.05469 36.2496 6.16055 35.2981 5.72578 34.2152C5.56172 33.8051 5.53711 33.6082 5.53711 32.4762V31.1883L5.11055 30.7371C4.23281 29.8102 3.85547 28.9324 3.85547 27.8168C3.85547 27.1524 3.9375 26.775 4.2 26.1516L4.36406 25.766L4.70859 25.9957C5.64375 26.6356 6.69375 26.9883 7.68633 26.9883C8.20313 26.9883 8.28516 26.9637 8.48203 26.775C8.6543 26.6027 8.69531 26.4797 8.69531 26.168C8.69531 25.6266 8.44102 25.3723 7.80938 25.3066C6.65273 25.1836 5.85703 24.8145 5.09414 24.0352C3.69141 22.616 3.44531 20.4422 4.49531 18.818C4.67578 18.5473 4.9875 18.1781 5.20898 18.0059C6.07031 17.284 6.08672 17.2594 6.0457 16.8328C6.0293 16.6195 5.90625 16.2094 5.7832 15.9141C5.47148 15.2086 5.40586 13.9945 5.63555 13.2891C6.0457 12.0422 6.87422 11.0496 7.94883 10.5164C8.54766 10.2211 8.58047 10.2129 9.50742 10.2129C10.4426 10.2129 10.4672 10.2211 11.0824 10.5246C11.8207 10.8938 12.5098 11.5418 12.9281 12.2473C13.248 12.7969 13.5352 13.6008 13.5352 13.9863C13.5434 14.8723 13.8223 15.2578 14.4375 15.2578C14.7492 15.2578 14.8723 15.2168 15.0445 15.0445C15.2414 14.8477 15.2578 14.7656 15.2578 14.1914C15.2578 12.0996 13.8879 9.9504 11.9438 8.99063C11.1727 8.61329 10.4672 8.44923 9.52383 8.44923H8.75273L8.80195 7.98985C8.89219 7.14493 9.46641 6.25079 10.2375 5.7504C11.3121 5.06134 12.7723 5.07774 13.7566 5.78321C14.7328 6.49689 14.9789 6.55431 15.4055 6.19337C15.9223 5.75861 15.7992 5.15977 15.0773 4.58556C14.5688 4.18361 13.6582 3.72423 13.1988 3.6504C13.0266 3.61759 12.8789 3.56017 12.8789 3.51915C12.8789 3.37149 13.6336 2.63321 14.093 2.3297C14.7902 1.86212 15.3234 1.71446 16.2422 1.74728C16.9559 1.76368 17.0789 1.79649 17.6449 2.0754ZM26.9719 1.87032C27.2344 1.96056 27.6609 2.15743 27.907 2.3297C28.3664 2.63321 29.1211 3.37149 29.1211 3.51915C29.1211 3.56017 28.9734 3.61759 28.8012 3.6504C28.0301 3.78165 26.6355 4.65118 26.3648 5.17618C26.1844 5.52892 26.2746 5.92267 26.5863 6.18517C27.0211 6.55431 27.2672 6.49689 28.2516 5.78321C29.0883 5.17618 30.4254 5.06954 31.3852 5.53712C32.3449 6.0047 33.0996 7.03009 33.198 7.98985L33.2473 8.44923H32.4762C31.5328 8.44923 30.8273 8.61329 30.0563 8.99063C28.1121 9.9504 26.7422 12.0996 26.7422 14.1914C26.7422 14.7656 26.7586 14.8477 26.9555 15.0445C27.1277 15.2168 27.2508 15.2578 27.5625 15.2578C28.1777 15.2578 28.4566 14.8723 28.4648 13.9863C28.4648 13.6008 28.752 12.7969 29.0719 12.2473C29.4902 11.5418 30.1793 10.8938 30.9176 10.5246C31.5328 10.2211 31.5574 10.2129 32.4926 10.2129C33.4195 10.2129 33.4523 10.2211 34.0512 10.5164C35.134 11.0578 35.9871 12.075 36.3563 13.2809C36.5941 14.0602 36.5367 15.184 36.2168 15.9141C36.0938 16.2094 35.9707 16.6195 35.9543 16.8328C35.9133 17.2594 35.9297 17.284 36.791 18.0059C37.0125 18.1781 37.3242 18.5473 37.5047 18.818C38.5629 20.4504 38.3086 22.6324 36.8895 24.0434C36.1102 24.8309 35.3473 25.1836 34.1906 25.3066C33.559 25.3723 33.3047 25.6266 33.3047 26.168C33.3047 26.4797 33.3457 26.6027 33.518 26.775C33.7148 26.9637 33.7969 26.9883 34.3137 26.9883C35.3063 26.9883 36.3563 26.6356 37.2914 25.9957L37.6359 25.766L37.8 26.1516C38.0625 26.775 38.1445 27.1524 38.1445 27.8168C38.1445 28.9324 37.7836 29.7691 36.8731 30.7535L36.4219 31.2539L36.4711 32.3121C36.5203 33.2883 36.5121 33.4277 36.3398 33.9691C35.9543 35.1586 35.0273 36.2086 33.9035 36.7254C33.5098 36.9059 33.2801 36.9551 32.6074 36.9797C31.5 37.0125 31.4016 37.0617 30.9914 37.7672C30.3188 38.9238 29.1375 39.8344 27.8906 40.1543C27.1605 40.343 25.9055 40.2938 25.2246 40.0477C24.3715 39.7359 23.3707 38.9649 22.8703 38.2512C22.2059 37.2832 21.9023 36.3234 21.9023 35.216C21.9023 33.9199 22.3043 32.8781 23.1492 31.9594C24.0352 30.9832 24.9949 30.4992 26.3484 30.3516C27.341 30.2367 27.5543 30.0727 27.5625 29.441C27.5625 29.1375 27.5215 29.0145 27.3492 28.8422C27.1523 28.6535 27.0703 28.6289 26.5371 28.6289C24.9867 28.6289 23.3625 29.2852 22.2469 30.3762L21.8121 30.8027L21.8367 22.8457L21.8613 14.8887L22.091 14.5031C22.3617 14.0356 22.8375 13.7402 23.4363 13.6582C24.027 13.5844 24.2813 13.3219 24.2813 12.7969C24.2813 12.4852 24.2402 12.3621 24.068 12.1899C23.8793 12.0012 23.7809 11.9766 23.3215 11.9766C23.0098 11.9766 22.616 12.0422 22.3371 12.1406C22.0746 12.2309 21.8531 12.3047 21.8367 12.3047C21.8203 12.3047 21.8203 10.7297 21.8449 8.79376C21.8777 5.53712 21.8941 5.25821 22.05 4.79884C22.5176 3.40431 23.5266 2.3379 24.8063 1.87852C25.3641 1.68165 26.332 1.67345 26.9719 1.87032Z" fill="white"/>
<path d="M16.2914 7.02188C16.1191 7.19414 16.0781 7.31719 16.0781 7.62891C16.0781 7.94063 16.1191 8.06367 16.2914 8.23594C16.4637 8.4082 16.5867 8.44922 16.8984 8.44922C17.2102 8.44922 17.3332 8.4082 17.5055 8.23594C17.6777 8.06367 17.7187 7.94063 17.7187 7.62891C17.7187 7.31719 17.6777 7.19414 17.5055 7.02188C17.3332 6.84961 17.2102 6.80859 16.8984 6.80859C16.5867 6.80859 16.4637 6.84961 16.2914 7.02188Z" fill="white"/>
<path d="M8.90041 13.8387C8.67893 14.0684 8.67893 14.0766 8.71994 14.8887C8.84299 17.3004 10.5574 19.3922 12.9363 20.0156L13.4449 20.1469L13.3137 20.4012C12.9528 21.1559 12.2719 21.6152 11.3203 21.7547C10.5738 21.8695 10.336 22.0828 10.336 22.6406C10.336 22.9523 10.377 23.0754 10.5492 23.2477C10.7461 23.4363 10.8363 23.4609 11.3203 23.4609C13.002 23.4609 14.7 22.1648 15.1102 20.5652C15.1922 20.2535 15.2496 20.1633 15.4137 20.1305C16.5539 19.8844 17.5793 19.4004 18.211 18.7934C18.4981 18.5227 18.5391 18.4406 18.5391 18.1125C18.5391 17.8254 18.4899 17.6941 18.3258 17.5301C17.9321 17.1363 17.4891 17.1691 16.8985 17.6367C16.7262 17.7762 16.3406 17.9977 16.0371 18.1453C15.2742 18.498 14.1668 18.5637 13.3137 18.3094C12.2473 17.9813 11.2711 17.1609 10.7953 16.2012C10.5738 15.7418 10.4672 15.2988 10.377 14.5031C10.3113 13.8715 10.0571 13.6172 9.51565 13.6172C9.20393 13.6172 9.08088 13.6582 8.90041 13.8387Z" fill="white"/>
<path d="M14.3965 25.5117C12.9445 25.8809 11.8453 26.4879 10.8363 27.4887C10.1883 28.1285 9.51562 29.1375 9.51562 29.4574C9.51562 29.9578 9.90117 30.3516 10.3934 30.3516C10.7133 30.3516 10.9348 30.1793 11.3121 29.6297C11.9684 28.6699 12.8871 27.907 13.8797 27.4969C14.4621 27.2508 15.0609 27.1195 16.0125 27.0211C16.6441 26.9637 16.8984 26.7176 16.8984 26.168C16.8984 25.8562 16.8574 25.7332 16.6852 25.5609C16.4801 25.3641 16.4227 25.3477 15.7172 25.3559C15.2988 25.3641 14.7164 25.4297 14.3965 25.5117Z" fill="white"/>
<path d="M8.90854 32.1234C8.60503 32.4352 8.60503 33.0258 8.90854 33.3375C9.03159 33.4523 9.17104 33.5508 9.22026 33.5508C10.7789 33.6 12.157 34.3957 12.9281 35.7082C13.248 36.2578 13.5351 37.0617 13.5351 37.4473C13.5433 38.3332 13.8222 38.7188 14.4375 38.7188C14.7492 38.7188 14.8722 38.6777 15.0445 38.5055C15.2414 38.3086 15.2578 38.2266 15.2578 37.6523C15.2578 34.6582 12.6082 31.9184 9.71245 31.9102C9.18745 31.9102 9.10542 31.9348 8.90854 32.1234Z" fill="white"/>
<path d="M24.4945 7.02188C24.3223 7.19414 24.2812 7.31719 24.2812 7.62891C24.2812 7.94063 24.3223 8.06367 24.4945 8.23594C24.6668 8.4082 24.7898 8.44922 25.1016 8.44922C25.4133 8.44922 25.5363 8.4082 25.7086 8.23594C25.8809 8.06367 25.9219 7.94063 25.9219 7.62891C25.9219 7.31719 25.8809 7.19414 25.7086 7.02188C25.5363 6.84961 25.4133 6.80859 25.1016 6.80859C24.7898 6.80859 24.6668 6.84961 24.4945 7.02188Z" fill="white"/>
<path d="M31.8855 13.8305C31.7297 13.9863 31.6641 14.1504 31.6313 14.5031C31.5082 15.7172 31.1555 16.5129 30.409 17.2594C29.5805 18.0879 28.7109 18.457 27.6117 18.457C26.6109 18.457 25.807 18.1863 25.0934 17.6285C24.5027 17.1691 24.068 17.1363 23.6742 17.5301C23.5102 17.6941 23.4609 17.8254 23.4609 18.1125C23.4609 18.4406 23.502 18.5227 23.7891 18.7934C24.4207 19.4004 25.4461 19.8844 26.5863 20.1305C26.7504 20.1633 26.8078 20.2535 26.8898 20.5652C27.3 22.1648 28.998 23.4609 30.6797 23.4609C31.1637 23.4609 31.2539 23.4363 31.4508 23.2477C31.623 23.0754 31.6641 22.9523 31.6641 22.6406C31.6641 22.0828 31.4262 21.8695 30.6797 21.7547C29.7281 21.6152 29.0473 21.1559 28.6863 20.4012L28.5551 20.1469L29.0637 20.0156C30.0809 19.7449 30.9668 19.2199 31.7215 18.4406C32.6895 17.4316 33.2145 16.2586 33.2801 14.8887C33.3211 14.0766 33.3211 14.0684 33.0996 13.8387C32.7797 13.527 32.1891 13.5188 31.8855 13.8305Z" fill="white"/>
<path d="M25.3148 25.5609C25.1426 25.7332 25.1016 25.8562 25.1016 26.168C25.1016 26.7176 25.3559 26.9637 25.9875 27.0211C26.9391 27.1195 27.5379 27.2508 28.1203 27.4969C29.1129 27.907 30.0316 28.6699 30.6879 29.6297C30.8602 29.884 31.0898 30.1547 31.1883 30.2203C31.5574 30.4828 32.2055 30.2941 32.3941 29.884C32.5582 29.5148 32.4926 29.2359 32.0906 28.6207C30.8109 26.6601 28.4484 25.3477 26.2172 25.3477C25.5855 25.3477 25.5199 25.3641 25.3148 25.5609Z" fill="white"/>
<path d="M31.1309 32.0414C28.7109 32.6238 26.7422 35.1504 26.7422 37.6523C26.7422 38.2266 26.7586 38.3086 26.9555 38.5055C27.1277 38.6777 27.2508 38.7188 27.5625 38.7188C28.1777 38.7188 28.4566 38.3332 28.4648 37.4473C28.4648 37.0617 28.752 36.2578 29.0719 35.7082C29.843 34.3957 31.2211 33.6 32.7797 33.5508C32.8289 33.5508 32.9684 33.4523 33.0914 33.3375C33.2637 33.1652 33.3047 33.0422 33.3047 32.7305C33.3047 32.4188 33.2637 32.2957 33.0914 32.1234C32.8945 31.9266 32.8207 31.9102 32.2465 31.9184C31.902 31.9184 31.4016 31.9758 31.1309 32.0414Z" fill="white"/>
</svg>
