<svg width="43" height="43" viewBox="0 0 43 43" fill="none" xmlns="http://www.w3.org/2000/svg">
<g clip-path="url(#clip0_34_334)">
<path d="M20.2905 1.34373C16.6372 1.80564 13.4206 4.09002 11.8417 7.34861C9.59094 11.9761 10.9431 17.5695 15.0583 20.6685C15.5874 21.0633 15.6882 21.1724 15.5622 21.2144C14.9827 21.416 13.6894 22.0039 13.0595 22.3566C8.82668 24.7334 5.75285 28.7058 4.58547 33.325C4.09836 35.2398 3.89679 37.583 4.14035 38.5236C4.54347 40.0605 5.76125 41.2615 7.23937 41.5638C7.55012 41.631 9.91008 41.6562 14.84 41.6394C21.9114 41.6142 21.9954 41.6142 22.2222 41.4379C22.6673 41.1103 22.8017 40.8416 22.8017 40.3125C22.8017 39.7834 22.6673 39.5146 22.2222 39.1871C21.9954 39.0107 21.903 39.0107 14.7812 38.9687C7.65929 38.9267 7.56691 38.9267 7.34015 38.7504C6.73547 38.3053 6.62629 37.8013 6.79426 36.2224C7.05461 33.7785 7.82726 31.5781 9.13742 29.5625C10.498 27.4629 12.4548 25.6992 14.6972 24.5318C16.8724 23.4064 18.5773 22.9781 21.4579 22.8437C22.6253 22.7849 23.2888 22.7094 23.9355 22.5582C28.1179 21.6008 31.1749 18.4261 32.1323 14.0674C32.3339 13.1435 32.3339 10.9683 32.1323 10.0361C31.6536 7.83572 30.671 5.97966 29.1845 4.48474C27.6392 2.93103 25.7495 1.91482 23.5743 1.4697C22.7765 1.31013 21.08 1.24294 20.2905 1.34373ZM23.44 4.27478C24.9097 4.65271 26.1023 5.34138 27.1773 6.41638C28.2691 7.49978 28.9325 8.67556 29.3273 10.1873C29.596 11.2035 29.596 13.0344 29.3273 14.0254C28.9073 15.5791 28.2943 16.6289 27.1689 17.7627C25.6823 19.2492 24.0195 19.9967 21.9534 20.131C18.5521 20.341 15.2935 18.275 14.0337 15.1088C13.5886 13.9918 13.4878 13.4375 13.4878 12.0937C13.4878 10.8088 13.6306 10.0277 14.0421 9.0283C14.5712 7.77693 15.6966 6.3408 16.7464 5.59333C17.7122 4.90466 18.93 4.37556 20.1142 4.1488C20.9204 3.98923 22.6001 4.05642 23.44 4.27478Z" fill="white"/>
<path d="M31.0322 24.3051C30.7215 24.4479 30.4443 24.7418 30.3268 25.0525C30.268 25.2037 30.2344 26.2115 30.2344 27.7568V30.226L27.6393 30.2512C25.1617 30.2764 25.0273 30.2848 24.809 30.4527C24.3639 30.7803 24.2295 31.049 24.2295 31.5781C24.2295 32.1072 24.3639 32.376 24.809 32.7035C25.0273 32.8715 25.1617 32.8799 27.6309 32.9051L30.226 32.9303L30.2512 35.5254C30.2764 37.9945 30.2848 38.1289 30.4527 38.3473C30.7803 38.7924 31.049 38.9268 31.5781 38.9268C32.1072 38.9268 32.376 38.7924 32.7035 38.3473C32.8715 38.1289 32.8799 37.9945 32.9051 35.5254L32.9303 32.9303L35.5254 32.9051C37.9945 32.8799 38.1289 32.8715 38.3473 32.7035C38.7924 32.376 38.9268 32.1072 38.9268 31.5781C38.9268 31.049 38.7924 30.7803 38.3473 30.4527C38.1289 30.2848 37.9945 30.2764 35.5254 30.2512L32.9303 30.226L32.9051 27.6309C32.8799 25.1617 32.8715 25.0273 32.7035 24.809C32.6111 24.683 32.4348 24.4982 32.3172 24.4143C32.0316 24.2043 31.3682 24.1455 31.0322 24.3051Z" fill="white"/>
</g>
<defs>
<clipPath id="clip0_34_334">
<rect width="43" height="43" fill="white"/>
</clipPath>
</defs>
</svg>
