<svg width="288" height="262" viewBox="0 0 288 262" fill="none" xmlns="http://www.w3.org/2000/svg">
<path d="M46.5687 200.407C37.4589 199.953 27.1933 197.281 18.5862 190.25C10.1905 183.395 5.6896 174.314 4.16269 163.619C2.89417 154.739 5.03186 146.645 9.30722 139.005C10.5053 136.862 12.253 135.01 13.8598 133.115C14.8605 131.936 15.133 131.047 13.9209 129.77C8.21254 123.734 5.23388 116.426 4.04523 108.3C3.14318 102.138 4.05933 96.1401 6.2299 90.4322C12.1402 74.876 23.8529 66.0616 40.0241 63.3106C51.9669 61.2754 63.2567 63.6521 73.7337 69.9916C83.6187 75.9708 91.352 84.2238 99.1792 92.4861C107.166 100.917 114.148 110.199 122.027 118.714C124.399 121.278 126.668 123.978 127.937 127.318C130.014 132.787 127.655 137.302 124.347 141.26C116.812 150.281 109.13 159.189 101.279 167.937C94.9367 175.002 88.566 182.109 80.983 187.91C71.3987 195.242 60.8794 200.388 46.5781 200.416L46.5687 200.407ZM53.3764 166.272C55.3167 166.403 57.3981 165.846 59.4653 165.018C66.2683 162.286 71.2531 157.238 76.2238 152.147C82.1106 146.112 87.2035 139.393 92.8789 133.18C94.1098 131.833 94.1991 130.621 92.8648 129.33C89.1626 125.737 86.0242 121.648 82.6227 117.788C76.952 111.35 71.4269 104.739 64.0272 100.126C57.7504 96.2149 51.1682 95.5646 44.3699 98.849C36.2138 102.784 33.9305 112.679 39.5355 119.743C41.1564 121.783 43.2095 123.346 45.2344 124.923C49.1057 127.94 49.7776 131.941 47.1372 136.006C45.9814 137.789 44.2478 138.813 42.594 139.964C37.7502 143.328 35.7346 147.908 36.7072 153.696C37.9193 160.929 44.8116 166.174 53.3811 166.272H53.3764Z" fill="white"/>
<path d="M193.03 131.182C193.03 109.357 193.03 87.5267 193.03 65.7012C193.03 62.1174 193.045 62.1221 196.545 62.0379C222.136 61.4203 247.732 61.8695 273.323 61.7806C276.762 61.7665 280.196 62.066 283.635 62.1174C285.017 62.1361 285.665 62.6414 285.66 64.0216C285.646 73.6875 285.637 83.3535 285.656 93.0194C285.656 94.568 284.66 94.8394 283.499 94.8394C268.474 94.8347 253.445 94.7317 238.42 94.8066C231.02 94.844 232.307 93.8381 232.162 100.931C232.077 105.137 232.167 109.352 232.087 113.558C232.054 115.144 232.528 115.696 234.234 115.687C248.009 115.631 261.779 115.696 275.554 115.682C276.879 115.682 277.33 116.113 277.33 117.427C277.321 126.392 277.344 135.356 277.41 144.32C277.424 146.397 276.114 146.486 274.605 146.486C268.423 146.472 262.235 146.435 256.052 146.463C248.93 146.495 241.807 146.626 234.685 146.612C232.768 146.612 232.124 147.263 232.138 149.195C232.246 164.475 232.265 179.751 232.317 195.031C232.317 195.653 232.359 196.28 232.359 196.902C232.35 199.915 232.34 199.808 229.23 199.986C217.893 200.631 206.538 199.892 195.201 200.486C193.27 200.589 193.03 199.639 193.03 198.072C193.04 181.856 192.998 165.645 192.979 149.429C192.969 143.347 192.979 137.269 192.979 131.187H193.03V131.182Z" fill="white"/>
<path d="M140.819 131.211C140.819 109.235 140.819 87.26 140.819 65.2895C140.819 62.1829 140.838 62.239 143.925 62.1548C152.988 61.9115 162.055 61.6542 171.123 61.7244C173.134 61.7384 175.102 62.2156 177.174 61.8507C179.035 61.5232 179.674 62.8706 179.669 64.6532C179.65 72.0547 179.725 79.4562 179.721 86.8624C179.711 123.645 179.688 160.424 179.664 197.206C179.664 200.159 179.584 200.238 176.653 200.248C165.306 200.285 153.96 200.28 142.614 200.388C140.927 200.402 140.711 199.709 140.721 198.306C140.787 183.269 140.815 168.232 140.838 153.19C140.852 145.864 140.838 138.542 140.838 131.215H140.805L140.819 131.211Z" fill="white"/>
</svg>
