<svg width="159" height="79" viewBox="0 0 159 79" fill="none" xmlns="http://www.w3.org/2000/svg">
<g filter="url(#filter0_i_493_67)">
<path d="M24.1738 78.2078C19.0367 77.9519 13.2478 76.4456 8.39421 72.4806C3.6598 68.6159 1.12171 63.4954 0.260666 57.4648C-0.454662 52.4578 0.750798 47.894 3.16172 43.5861C3.83731 42.3778 4.82287 41.3332 5.72895 40.2648C6.29327 39.6 6.44693 39.0987 5.76339 38.3786C2.54442 34.9755 0.864721 30.8548 0.194432 26.2725C-0.314246 22.7982 0.20238 19.4163 1.42639 16.1978C4.75929 7.42632 11.3642 2.45624 20.4833 0.905065C27.2179 -0.242486 33.5844 1.09764 39.4924 4.6722C45.0667 8.04363 49.4276 12.6971 53.8414 17.3559C58.3453 22.1097 62.2823 27.3436 66.7253 32.1448C68.0632 33.5905 69.3428 35.1126 70.0582 36.9962C71.2292 40.0801 69.8992 42.6258 68.034 44.8576C63.7845 49.9438 59.4528 54.9666 55.0257 59.8998C51.449 63.8832 47.8565 67.8904 43.5804 71.1616C38.1757 75.2954 32.2438 78.1973 24.1791 78.2131L24.1738 78.2078ZM28.0128 58.9606C29.1069 59.0345 30.2806 58.7205 31.4463 58.2536C35.2826 56.713 38.0936 53.8665 40.8966 50.9963C44.2163 47.5933 47.0882 43.805 50.2886 40.3017C50.9827 39.5419 51.0331 38.8587 50.2807 38.1306C48.193 36.1046 46.4232 33.7989 44.505 31.6225C41.3073 27.9926 38.1916 24.265 34.0189 21.6639C30.4793 19.4585 26.7676 19.0918 22.9339 20.9437C18.3346 23.1623 17.047 28.7418 20.2077 32.7252C21.1218 33.8754 22.2795 34.7565 23.4214 35.6455C25.6045 37.3471 25.9833 39.6026 24.4944 41.8951C23.8427 42.9002 22.865 43.4779 21.9325 44.1269C19.201 46.0236 18.0644 48.6063 18.6128 51.8695C19.2963 55.948 23.183 58.9052 28.0154 58.9606H28.0128Z" fill="#1E9DE0"/>
<path d="M106.765 39.1753C106.765 26.8688 106.765 14.5596 106.765 2.25311C106.765 0.232365 106.773 0.235007 108.747 0.187522C123.178 -0.160701 137.611 0.0925511 152.043 0.0424281C153.982 0.034514 155.919 0.203349 157.858 0.232368C158.637 0.24292 159.002 0.527827 159 1.30605C158.992 6.75626 158.987 12.2065 158.997 17.6567C158.997 18.5299 158.435 18.6829 157.781 18.6829C149.308 18.6802 140.833 18.6222 132.36 18.6644C128.188 18.6855 128.914 18.1183 128.831 22.1176C128.784 24.4892 128.834 26.8661 128.789 29.2377C128.771 30.132 129.038 30.4433 130 30.438C137.768 30.4064 145.533 30.4433 153.301 30.4354C154.048 30.4354 154.302 30.6781 154.302 31.4194C154.297 36.4739 154.31 41.5284 154.347 46.5829C154.355 47.7542 153.616 47.8043 152.766 47.8043C149.279 47.7964 145.79 47.7753 142.303 47.7911C138.287 47.8096 134.271 47.8834 130.254 47.8755C129.173 47.8755 128.81 48.2422 128.818 49.3317C128.879 57.9476 128.89 66.5608 128.919 75.1767C128.919 75.5276 128.943 75.8811 128.943 76.2319C128.937 77.9308 128.932 77.8702 127.178 77.9704C120.785 78.3345 114.382 77.9176 107.989 78.2527C106.9 78.3107 106.765 77.7752 106.765 76.8914C106.77 67.748 106.746 58.6071 106.736 49.4636C106.73 46.0342 106.736 42.6073 106.736 39.1779H106.765V39.1753Z" fill="#1E9DE0"/>
<path d="M77.3224 39.1911C77.3224 26.8002 77.3224 14.4092 77.3224 2.02097C77.3224 0.269301 77.333 0.300958 79.0736 0.253473C84.1843 0.116295 89.2975 -0.0288016 94.4108 0.0107691C95.5447 0.0186833 96.6548 0.287765 97.8232 0.0819976C98.8723 -0.102666 99.2326 0.657094 99.23 1.66219C99.2194 5.83558 99.2618 10.009 99.2591 14.185C99.2538 34.9254 99.2406 55.6631 99.2273 76.4034C99.2273 78.068 99.1823 78.1129 97.5291 78.1181C91.1309 78.1392 84.7327 78.1366 78.3345 78.1973C77.3833 78.2052 77.2615 77.8148 77.2668 77.0233C77.3039 68.5447 77.3197 60.066 77.333 51.5846C77.3409 47.4534 77.333 43.3249 77.333 39.1937H77.3145L77.3224 39.1911Z" fill="#1E9DE0"/>
</g>
<defs>
<filter id="filter0_i_493_67" x="0" y="0" width="163" height="82.257" filterUnits="userSpaceOnUse" color-interpolation-filters="sRGB">
<feFlood flood-opacity="0" result="BackgroundImageFix"/>
<feBlend mode="normal" in="SourceGraphic" in2="BackgroundImageFix" result="shape"/>
<feColorMatrix in="SourceAlpha" type="matrix" values="0 0 0 0 0 0 0 0 0 0 0 0 0 0 0 0 0 0 127 0" result="hardAlpha"/>
<feOffset dx="4" dy="4"/>
<feGaussianBlur stdDeviation="2.5"/>
<feComposite in2="hardAlpha" operator="arithmetic" k2="-1" k3="1"/>
<feColorMatrix type="matrix" values="0 0 0 0 0 0 0 0 0 0 0 0 0 0 0 0 0 0 0.25 0"/>
<feBlend mode="normal" in2="shape" result="effect1_innerShadow_493_67"/>
</filter>
</defs>
</svg>
