<?xml version="1.0" encoding="utf-8"?>
<svg width="153.92822px" height="44.069866px" viewBox="0 0 153.92822 44.069866" version="1.1" xmlns:xlink="http://www.w3.org/1999/xlink" xmlns="http://www.w3.org/2000/svg">
  <defs>
    <path d="M153.928 0L153.928 0L153.928 44.0699L0 44.0699L0 0L153.928 0Z" id="path_1" />
    <clipPath id="clip_1">
      <use xlink:href="#path_1" clip-rule="evenodd" fill-rule="evenodd" />
    </clipPath>
  </defs>
  <g id="SVG" clip-path="url(#clip_1)">
    <path d="M153.928 0L153.928 0L153.928 44.0699L0 44.0699L0 0L153.928 0Z" id="SVG" fill="none" stroke="none" />
    <path d="M24.0847 1.36884C20.9506 4.65399 19.1402 8.38892 18.4783 12.9256C18.3031 14.0793 18.3226 14.6855 18.5367 15.7023C18.673 16.4258 18.7314 17.0125 18.6341 17.0125C18.5562 17.0125 17.8554 16.4845 17.1157 15.8587C14.3514 13.5317 11.4703 12.5345 7.09025 12.378C2.57393 12.202 2.22352 12.5345 2.22352 16.9147C2.22352 20.0239 2.49606 21.0993 3.95608 23.9544C4.9489 25.8903 5.29928 26.2812 5.8249 26.0075C6.36997 25.7142 6.31156 25.3817 5.5329 23.9544C5.14356 23.2699 4.55954 21.9793 4.22862 21.0798C3.64462 19.5937 3.60567 19.2612 3.58621 17.1102C3.58621 15.1743 3.64462 14.6464 3.93662 14.2162C4.26754 13.6882 4.28703 13.6882 6.56464 13.6882C12.3268 13.6882 16.5317 16.0152 19.6853 20.9234C20.1914 21.7252 20.756 22.8006 20.9312 23.309C21.2815 24.3649 21.593 24.6975 22.1964 24.5996C23.0726 24.4822 23.0726 23.9934 22.2355 22.5659C19.549 18.0488 19.1597 12.4367 21.2037 7.88049C22.2161 5.65128 25.2333 1.75993 25.9536 1.75993C26.3624 1.75993 28.0949 3.40251 29.1072 4.75177C32.2608 8.97556 33.7402 15.1352 32.7669 19.9065C32.2608 22.39 31.3069 24.541 29.3214 27.6109C28.3675 29.1363 28.2701 29.6057 28.932 29.8598C29.3798 30.0358 30.0221 29.2145 31.4821 26.6334C32.8449 24.2281 33.4678 22.6833 34.0713 20.3367C34.4995 18.7137 34.5385 18.6355 35.9985 17.1884C38.5097 14.6855 41.2544 13.5709 45.362 13.3558C47.5423 13.2384 47.6397 13.258 48.068 13.6882C48.4962 14.1184 48.5156 14.2357 48.3794 16.2107C48.2042 19.1048 47.8147 20.7474 46.822 22.781C45.0116 26.4769 41.5271 29.3122 36.8745 30.8765C35.9205 31.1894 35.0446 31.6002 34.9278 31.7567C34.6941 32.1282 35.0056 32.7148 35.4535 32.8124C35.6091 32.8517 37.2055 32.2454 38.9963 31.4634C42.2084 30.0944 42.2668 30.0748 43.1623 30.3095C46.4912 31.1504 50.2093 33.9663 50.2093 35.6479C50.2093 36.7039 47.4645 39.0309 44.3497 40.5953C41.3129 42.1401 38.2176 42.5898 35.4729 41.8858C32.4945 41.1231 30.684 39.9305 25.5447 35.335C21.4958 31.7174 20.1525 30.8571 17.1157 29.8794C15.8503 29.4882 15.2663 29.4296 12.9303 29.4492C10.5164 29.4686 10.0103 29.5274 8.55025 29.9966C5.72756 30.9354 2.3598 33.0863 0.627253 35.0809C-0.326621 36.1563 -0.248752 36.6256 1.25019 38.2682C6.31156 43.8413 11.8985 45.3078 18.6925 42.8245C20.717 42.1008 22.2549 41.1231 22.3327 40.5171C22.4495 39.7152 21.846 39.7934 19.6853 40.8494C17.0378 42.1205 15.0522 42.6288 12.7551 42.6288C9.25106 42.6288 6.56464 41.3774 3.04114 38.1314C1.42539 36.6453 1.38646 36.5474 2.24301 35.5893C3.99501 33.6337 7.51851 31.6196 10.2439 31.0136C13.2807 30.3291 16.4732 30.7789 19.2375 32.2844C20.0551 32.7148 21.7098 33.927 22.9167 34.9634C30.2364 41.2601 31.5989 42.2183 34.2465 43.0396C36.2322 43.6652 39.6388 43.6652 41.936 43.0396C44.8363 42.2573 48.3014 40.2432 50.8516 37.8771C52.2922 36.5278 52.3506 35.9022 51.1632 34.1031C49.781 31.9521 48.1652 30.6811 45.4982 29.6251C44.7585 29.3318 44.1744 28.9994 44.1744 28.9016C44.1744 28.7844 44.8169 28.0217 45.5956 27.1808C46.3547 26.3595 47.2893 25.1666 47.6591 24.58C48.5934 22.9962 49.3722 20.5323 49.6448 18.3813C49.8588 16.5823 49.8004 13.3558 49.528 12.6518C49.3138 12.1434 48.6131 12.0261 46.1213 12.0456C43.4347 12.0847 41.8579 12.3585 39.8335 13.1407C38.2957 13.7273 35.8427 15.233 35.5507 15.761C35.4729 15.9174 35.2198 16.0347 35.0252 16.0347C34.5969 16.0347 34.5189 15.7805 34.3437 13.7273C33.9935 9.6404 32.0272 5.82726 28.3091 1.99458C26.8685 0.527992 26.2262 1.90735e-05 25.8758 1.90735e-05C25.5253 1.90735e-05 25.0192 0.391109 24.0847 1.36884L24.0847 1.36884Z" id="Shape" fill="#EFEFEF" stroke="none" />
    <path d="M73.2384 9.4253C72.2457 10.1293 71.759 11.2048 71.8562 12.3585C72.0899 14.6854 74.4844 15.9761 76.4895 14.8419C78.4555 13.7273 78.5724 10.7354 76.6841 9.4253C76.1974 9.11242 75.7692 8.9951 74.9515 8.9951C74.1339 8.9951 73.7057 9.11242 73.2384 9.4253L73.2384 9.4253Z" id="Shape" fill="#EFEFEF" stroke="none" />
    <path d="M86.3786 9.28834C84.9964 9.81632 83.9453 10.6963 83.4196 11.7718C82.9135 12.8473 82.5241 15.1743 82.5241 17.247L82.5241 18.3812L81.8428 18.3812L81.1615 18.3812L81.1615 20.7082L81.1615 23.0546L81.8038 23.1135L82.4267 23.1721L82.4851 29.2731L82.5241 35.3936L85.0548 35.3936L87.5856 35.3936L87.6244 29.2731L87.6828 23.1721L89.8825 23.1135L92.0628 23.0546L92.0628 20.7277L92.0628 18.3812L89.9215 18.3812C87.3907 18.3812 87.4297 18.4007 87.7412 16.3671C88.0138 14.5876 88.6755 13.825 89.9605 13.825C90.4276 13.825 91.0894 13.9619 91.4399 14.1574L92.0628 14.4899L92.0628 12.026L92.0628 9.58167L91.5373 9.347C90.7002 8.99504 87.2351 8.95592 86.3786 9.28834L86.3786 9.28834Z" id="Shape" fill="#EFEFEF" stroke="none" />
    <path d="M62.0841 22.2922L62.0841 35.3936L64.6148 35.3936L67.1456 35.3936L67.1456 22.2922L67.1456 9.19057L64.6148 9.19057L62.0841 9.19057L62.0841 22.2922L62.0841 22.2922Z" id="Shape" fill="#EFEFEF" stroke="none" />
    <path d="M100.473 18.3031C97.3579 19.144 94.9246 21.9206 94.3405 25.3233C94.0485 27.0049 94.3795 29.7229 95.0608 31.2091C95.7615 32.7344 97.4357 34.4356 98.9347 35.1201C100.005 35.6089 100.414 35.6871 102.517 35.7457C105.261 35.8436 106.702 35.4916 108.337 34.3182C109.291 33.6339 110.751 31.9717 110.751 31.5416C110.751 31.4241 109.758 30.994 108.571 30.5834L106.371 29.8598L105.592 30.6617C104.794 31.4634 103.782 31.8739 102.614 31.8739C101.29 31.8739 99.9275 30.6811 99.5576 29.1949L99.324 28.2564L105.32 28.1978L111.335 28.1585L111.335 27.0245C111.316 22.8594 108.707 19.2613 104.989 18.2836C103.587 17.912 101.835 17.9316 100.473 18.3031L100.473 18.3031ZM104.327 21.862C104.969 22.1749 105.67 23.1721 105.982 24.1891L106.099 24.6389L102.789 24.6389C99.0319 24.6389 99.071 24.6583 99.9081 23.1721C100.706 21.7252 102.828 21.0993 104.327 21.862L104.327 21.862Z" id="Shape" fill="#EFEFEF" fill-rule="evenodd" stroke="none" />
    <path d="M144.993 18.1661C144.156 18.4399 143.592 18.7919 142.54 19.8087L141.509 20.7864L141.509 19.574L141.509 18.3812L138.978 18.3812L136.447 18.3812L136.447 30.6028L136.447 42.8243L138.978 42.8243L141.509 42.8243L141.509 37.8379C141.509 35.1003 141.548 32.8517 141.587 32.8517C141.645 32.8517 142.132 33.3404 142.696 33.927C144.078 35.3936 144.954 35.7847 146.881 35.7847C148.127 35.7847 148.633 35.6869 149.49 35.2763C151.515 34.3378 153.325 31.7957 153.792 29.2339C154.084 27.6695 153.89 25.0298 153.364 23.485C152.877 22.0379 151.515 20.1411 150.308 19.2221C148.926 18.1661 146.551 17.6968 144.993 18.1661L144.993 18.1661ZM146.317 23.2893C148.011 23.9348 149.062 26.3399 148.517 28.354C148.166 29.6447 146.94 30.8179 145.733 30.994C144.585 31.1698 143.28 30.5636 142.404 29.4686C141.411 28.2172 141.47 25.675 142.521 24.3257C143.416 23.1917 144.954 22.7613 146.317 23.2893L146.317 23.2893Z" id="Shape" fill="#EFEFEF" fill-rule="evenodd" stroke="none" />
    <path d="M72.4013 26.8875L72.4013 35.3936L74.932 35.3936L77.4628 35.3936L77.4628 26.8875L77.4628 18.3812L74.932 18.3812L72.4013 18.3812L72.4013 26.8875L72.4013 26.8875Z" id="Shape" fill="#EFEFEF" stroke="none" />
    <path d="M114.878 24.1889L114.937 30.0162L115.559 31.3263C116.377 33.0667 117.525 34.279 119.102 35.0613C120.368 35.6675 120.426 35.6869 123.112 35.6869C125.818 35.6869 125.857 35.6869 127.162 35.0416C129.439 33.9074 130.958 31.9911 131.386 29.6837C131.503 29.1363 131.581 26.3791 131.581 23.5436L131.581 18.3812L128.953 18.3812L126.324 18.3812L126.324 23.2111C126.324 28.6669 126.208 29.1949 124.923 30.1921C123.697 31.1112 122.548 31.1112 121.438 30.1727C120.192 29.1167 120.095 28.6083 120.095 23.2111L120.095 18.3812L117.448 18.3812L114.8 18.3812L114.878 24.1889L114.878 24.1889Z" id="Shape" fill="#EFEFEF" stroke="none" />
  </g>
</svg>